<svg width="548" height="502" viewBox="0 0 548 502" fill="none" xmlns="http://www.w3.org/2000/svg">
<path d="M151.008 84.6666L140.14 85.587C107.886 88.3184 77.4057 101.471 53.3243 123.047C29.8024 144.123 13.6253 172.127 7.1405 202.995L4.8786 213.762C2.29977 226.037 1 238.546 1 251.088V315.637C1 339.934 5.77161 363.996 15.0453 386.464L17.4664 392.33C29.5199 421.532 49.7469 446.655 75.7311 464.698C95.2811 478.273 117.548 487.462 140.999 491.631L143.063 491.999C176.747 497.988 210.895 501 245.111 501H270.072L306.174 496.102C314.045 495.035 321.702 492.754 328.872 489.345L339.077 484.49C350.717 478.953 363.569 476.43 376.446 477.155L384.441 477.605C392.839 478.078 401.257 477.17 409.36 474.92L435.895 467.549C439.974 466.415 444.166 465.73 448.394 465.505L463.448 464.704C467.951 464.464 472.208 462.587 475.416 459.427C478.866 456.03 483.518 454.125 488.366 454.125H490.216C493.373 454.125 496.495 453.475 499.389 452.216L501.158 451.446C507.858 448.531 513.363 443.428 516.769 436.978L523.033 425.113C525.323 420.776 527.152 416.213 528.491 411.498L534.353 390.848C535.74 385.961 538.148 381.422 541.419 377.529L544.32 374.078C545.212 373.016 545.903 371.801 546.36 370.492C548.347 364.8 545.565 358.548 540.001 356.2L536.855 354.873C533.16 353.313 528.994 353.284 525.276 354.791L519.425 357.164C514.247 359.263 508.589 359.896 503.074 358.991L501.008 358.652C494.313 357.553 488.039 354.675 482.844 350.321L472.739 341.852L460.708 334.215C457.219 332.001 453.557 330.072 449.757 328.446L408.638 310.854L380.854 294.616C376.105 291.841 371.667 288.562 367.62 284.84L342.605 261.83C336.294 256.025 331.337 248.907 328.089 240.98L316.616 212.984C311.378 200.206 316.988 185.566 329.434 179.529C331.813 178.376 334.002 176.87 335.929 175.064L351.469 160.5C355.028 157.165 358.898 154.175 363.026 151.573L379.832 140.981C383.675 138.559 387.294 135.801 390.648 132.739L411.631 113.586C415.257 110.277 418.556 106.627 421.482 102.688L440.113 77.6125L443.236 72.4321C445.655 68.4203 444.87 63.2595 441.367 60.1436C437.945 57.0995 432.86 56.8406 429.145 59.5213L402.929 78.438C398.826 81.3984 394.296 83.7201 389.495 85.3236L317.193 109.467C312.755 110.948 308.352 107.132 309.205 102.541L317.667 57.0064C317.923 55.6256 318.052 54.2241 318.052 52.8197V8.66631C318.052 3.09318 312.274 -0.613218 307.19 1.69908L270.072 18.5822L229.161 35.9032C220.93 39.3887 213.371 44.2821 206.827 50.3628L187.083 68.7106C177.187 77.9066 164.484 83.5248 151.008 84.6666Z" fill="white" stroke="white"/>
</svg>
